<?xml version="1.0" encoding="utf-8"?>
<!-- Generator: Adobe Illustrator 19.0.0, SVG Export Plug-In . SVG Version: 6.00 Build 0)  -->
<svg version="1.1" id="Layer_1" xmlns="http://www.w3.org/2000/svg" xmlns:xlink="http://www.w3.org/1999/xlink" x="0px" y="0px"
	 viewBox="-198 185.3 444 226" style="enable-background:new -198 185.3 444 226;" xml:space="preserve">
<style type="text/css">
	.st0{fill:#FFFFFF;}
	.st1{display:none;}
	.st2{display:inline;}
</style>
<g id="Light">
	<g id="XMLID_126_">
		<path id="XMLID_123_" class="st0" d="M-118.4,326.5c-0.2,0.7-0.3,1.4-0.3,2.2c0,5,4.1,9.1,9.1,9.1h40.3c9.9,0,18,8.1,18,18
			c0,6.7-3.6,12.6-9.2,15.7c0.2-0.7,0.3-1.4,0.3-2.2c0-5-4.1-9.1-9.1-9.1h-40.5c-9.9,0-17.9-8.1-17.9-18
			C-127.6,335.6-124,329.6-118.4,326.5 M-115.8,322.9c-8.2,2.6-14.2,10.3-14.2,19.3c0,11.2,9,20.3,20.2,20.3h40.5
			c3.7,0,6.8,3,6.8,6.8c0,1.8-0.7,3.5-1.9,4.7l1.2,1.2c8.3-2.6,14.3-10.3,14.3-19.4c0-11.2-9.1-20.3-20.3-20.3c-0.1,0-40.3,0-40.3,0
			c-3.7,0-6.8-3-6.8-6.8c0-1.8,0.7-3.5,1.9-4.7C-114.8,323.6-115.3,323.3-115.8,322.9L-115.8,322.9z"/>
	</g>
	<g id="XMLID_131_">
		<path id="XMLID_128_" class="st0" d="M-88.8,223.6c3.9,0,7.1,3.2,7.1,7.1s-3.2,7.1-7.1,7.1s-7.1-3.2-7.1-7.1
			S-92.7,223.6-88.8,223.6 M-88.8,221.3c-5.2,0-9.4,4.2-9.4,9.4s4.2,9.4,9.4,9.4s9.4-4.2,9.4-9.4C-79.3,225.6-83.6,221.3-88.8,221.3
			L-88.8,221.3z"/>
	</g>
	<g id="XMLID_136_">
		<path id="XMLID_133_" class="st0" d="M-59.5,238.1c5.2,3.3,8.4,9.1,8.4,15.2c0,7.4-6,13.4-13.4,13.4h-25.3
			c-11,0.2-20.1,9.3-20.1,20.5c0,11.3,9.2,20.5,20.5,20.5c11.1,0,20.1-8.7,20.5-19.7v-0.1v-0.1c0-0.2-0.1-1.5-0.2-2.9h18v0.1
			l0.1,2.2l0,0v0.1c0,21.1-17.2,38.3-38.3,38.3s-38.3-17.2-38.3-38.3s17.2-38.3,38.3-38.3H-69c5,0,9.1-4.1,9.1-9.1
			c0-0.6-0.1-1.1-0.2-1.7L-59.5,238.1 M-58.8,235.8h-4.8c0.8,1.1,1.3,2.5,1.3,4c0,3.7-3,6.8-6.8,6.8c0,0-19.9,0-20.3,0
			c-22.4,0-40.6,18.2-40.6,40.6s18.2,40.6,40.6,40.6s40.6-18.2,40.6-40.6c0-0.8,0-1.6-0.1-2.4l0,0c0-0.7-0.1-1.5-0.2-2.3h-22.8
			c0.5,1.8,0.6,5.3,0.6,5.3c-0.3,9.7-8.3,17.5-18.2,17.5c-10,0-18.2-8.1-18.2-18.2c0-9.9,8-18,17.9-18.2h25.2
			c8.7,0,15.7-7,15.7-15.7C-48.8,245.8-52.8,239.3-58.8,235.8L-58.8,235.8z"/>
	</g>
	<g id="XMLID_256_">
		<path id="XMLID_257_" class="st0" d="M-20.3,328.5v7.5c0,2-1.1,3-3.3,3v-0.7c1.7,0,2.6-0.8,2.6-2.4v-7.5L-20.3,328.5L-20.3,328.5z
			"/>
		<path id="XMLID_259_" class="st0" d="M-16.9,333.7c0-3.5,1.8-5.3,5.3-5.3s5.2,1.8,5.2,5.3s-1.7,5.3-5.2,5.3
			S-16.9,337.2-16.9,333.7z M-11.6,338.4c2.9,0,4.3-1.6,4.3-4.7s-1.4-4.6-4.3-4.6s-4.4,1.5-4.4,4.6S-14.6,338.4-11.6,338.4z"/>
		<path id="XMLID_262_" class="st0" d="M-3,338.9v-10.5h4.5c2,0,3,0.8,3,2.4c0,1.2-0.7,2-2.2,2.6c1.5,0.3,2.3,1.1,2.3,2.5
			c0,2-1.1,3-3.3,3H-3z M1.3,338.3c1.7,0,2.5-0.8,2.5-2.3c0-1.4-1.1-2.1-3.2-2.1H0.1v-0.5c2.4-0.2,3.7-1,3.7-2.4
			c0-1.2-0.8-1.8-2.3-1.8h-3.6v9.2h3.4C1.3,338.4,1.3,338.3,1.3,338.3z"/>
		<path id="XMLID_265_" class="st0" d="M8.2,338.6v-0.8c1.1,0.4,2.3,0.6,3.6,0.6c2.2,0,3.3-0.8,3.3-2.5c0-1.2-0.7-1.8-2.1-1.8h-2.2
			c-1.9,0-2.9-0.9-2.9-2.6c0-2,1.4-3,4.3-3c1.2,0,2.3,0.1,3.4,0.4v0.7c-1.1-0.3-2.2-0.5-3.4-0.5c-2.3,0-3.5,0.8-3.5,2.3
			c0,1.3,0.7,1.9,2.2,1.9h2.2c1.9,0,2.9,0.9,2.9,2.6c0,2.1-1.4,3.1-4.1,3.1C10.5,339,9.3,338.9,8.2,338.6z"/>
		<path id="XMLID_267_" class="st0" d="M31.4,328.5v0.7h-6.1v4.2h5.9v0.7h-5.9v5h-0.8v-10.5h6.9C31.4,328.6,31.4,328.5,31.4,328.5z"
			/>
		<path id="XMLID_269_" class="st0" d="M34.3,333.7c0-3.5,1.8-5.3,5.3-5.3s5.2,1.8,5.2,5.3s-1.7,5.3-5.2,5.3
			C36,339,34.3,337.2,34.3,333.7z M39.5,338.4c2.9,0,4.3-1.6,4.3-4.7s-1.4-4.6-4.3-4.6s-4.4,1.5-4.4,4.6S36.6,338.4,39.5,338.4z"/>
		<path id="XMLID_272_" class="st0" d="M48.2,338.9v-10.5h4.3c1.9,0,2.8,0.8,2.8,2.5c0,1.4-1,2.5-3.1,3.1l3.5,4.9h-1.1l-3.5-4.9
			v-0.5c2.1-0.3,3.2-1.2,3.2-2.5s-0.7-1.9-2.1-1.9h-3.4v9.8H48.2L48.2,338.9z"/>
		<path id="XMLID_274_" class="st0" d="M70.7,328.5v0.7h-3.6v9.8h-0.8v-9.8h-3.5v-0.7H70.7z"/>
		<path id="XMLID_276_" class="st0" d="M73.1,333.7c0-3.5,1.8-5.3,5.3-5.3s5.2,1.8,5.2,5.3s-1.7,5.3-5.2,5.3
			C74.8,339,73.1,337.2,73.1,333.7z M78.3,338.4c2.9,0,4.3-1.6,4.3-4.7s-1.4-4.6-4.3-4.6s-4.4,1.5-4.4,4.6S75.4,338.4,78.3,338.4z"
			/>
		<path id="XMLID_279_" class="st0" d="M87,338.9v-10.5h0.8l4.7,9.6l4.4-9.6h0.7v10.5h-0.7v-9.1l-4.2,9.1h-0.6l-4.4-9.1v9.1H87
			L87,338.9z"/>
		<path id="XMLID_281_" class="st0" d="M101.1,333.7c0-3.5,1.8-5.3,5.3-5.3s5.2,1.8,5.2,5.3s-1.7,5.3-5.2,5.3
			C102.8,339,101.1,337.2,101.1,333.7z M106.3,338.4c2.9,0,4.3-1.6,4.3-4.7s-1.4-4.6-4.3-4.6s-4.4,1.5-4.4,4.6
			S103.4,338.4,106.3,338.4z"/>
		<path id="XMLID_284_" class="st0" d="M115,338.9v-10.5h4.3c1.9,0,2.8,0.8,2.8,2.5c0,1.4-1,2.5-3.1,3.1l3.5,4.9h-1.1l-3.5-4.9v-0.5
			c2.1-0.3,3.2-1.2,3.2-2.5s-0.7-1.9-2.1-1.9h-3.4v9.8H115L115,338.9z"/>
		<path id="XMLID_286_" class="st0" d="M125.5,338.9v-10.5h4.3c1.9,0,2.8,0.8,2.8,2.5c0,1.4-1,2.5-3.1,3.1l3.5,4.9h-0.9l-3.5-4.9
			v-0.5c2.1-0.3,3.2-1.2,3.2-2.5s-0.7-1.9-2.1-1.9h-3.4v9.8H125.5L125.5,338.9z"/>
		<path id="XMLID_288_" class="st0" d="M135.7,333.7c0-3.5,1.8-5.3,5.3-5.3s5.2,1.8,5.2,5.3s-1.7,5.3-5.2,5.3
			S135.7,337.2,135.7,333.7z M141,338.4c2.9,0,4.3-1.6,4.3-4.7s-1.4-4.6-4.3-4.6s-4.4,1.5-4.4,4.6C136.5,336.8,138,338.4,141,338.4z
			"/>
		<path id="XMLID_291_" class="st0" d="M148.7,328.5h0.8l1.7,9.7l3.4-9.7h0.8l3.5,9.8l1.9-9.8h0.7l-2.1,10.5h-1.1l-3.3-9.6l-3.3,9.6
			h-1.1L148.7,328.5z"/>
	</g>
	<g id="XMLID_251_" class="st1">
		<g id="XMLID_324_" class="st2">
			<path id="XMLID_325_" class="st0" d="M167,276.3c0-3.6,1.8-5.4,5.5-5.4s5.5,1.8,5.5,5.4c0,3.5-1.8,5.3-5.5,5.3
				C168.9,281.6,167.1,279.8,167,276.3z M172.5,280.9c3,0,4.6-1.5,4.6-4.6s-1.5-4.7-4.6-4.7c-3,0-4.5,1.6-4.5,4.7
				C167.9,279.4,169.4,280.9,172.5,280.9z M170.2,279.7v-6.8h2.9c1.3,0,1.9,0.5,1.9,1.6c0,0.9-0.6,1.5-1.9,2l2.3,3.2h-1.2l-2.2-3.1
				V276c1.3-0.2,2-0.7,2-1.5c0-0.6-0.4-0.9-1.1-0.9h-1.8v6.1C171.1,279.7,170.2,279.7,170.2,279.7z"/>
		</g>
	</g>
	<g id="XMLID_97_">
		<g id="XMLID_401_">
			<path id="XMLID_415_" class="st0" d="M2.8,307.3c-2.9,1-5.9,1.5-9,1.5c-12,0-18-5.8-18-17.5c0-11,5.9-16.5,17.6-16.5
				c3.2,0,6.3,0.5,9.4,1.4v2.2c-3-0.9-6-1.4-8.9-1.4c-10.4,0-15.6,4.8-15.6,14.4c0,10.2,5,15.4,15.1,15.4c2.1,0,4.4-0.3,6.9-1v-12.4
				h2.5C2.8,293.4,2.8,307.3,2.8,307.3z"/>
			<path id="XMLID_412_" class="st0" d="M10.2,296.3c0-8.4,3.8-12.5,11.5-12.5s11.5,4.2,11.5,12.5s-3.8,12.5-11.5,12.5
				S10.2,304.7,10.2,296.3z M21.6,306.8c6,0,9-3.5,9-10.5c0-6.9-3-10.3-9-10.3s-9,3.4-9,10.3C12.6,303.3,15.6,306.8,21.6,306.8z"/>
			<path id="XMLID_410_" class="st0" d="M37.9,284h2.8l9.1,22.2l9-22.2h2.7l-10.6,25.4c-1.8,4.5-4.5,7.3-8.2,8.4l-0.7-2
				c2.8-1,5-3.3,6.5-6.8L37.9,284z"/>
			<path id="XMLID_407_" class="st0" d="M66.3,296.3c0-8.4,3.8-12.5,11.5-12.5s11.5,4.2,11.5,12.5s-3.8,12.5-11.5,12.5
				C70.2,308.8,66.3,304.7,66.3,296.3z M77.8,306.8c6,0,9-3.5,9-10.5c0-6.9-3-10.3-9-10.3s-9,3.4-9,10.3
				C68.8,303.3,71.8,306.8,77.8,306.8z"/>
			<path id="XMLID_404_" class="st0" d="M95.8,296.3c0-8.4,3.8-12.5,11.5-12.5s11.5,4.2,11.5,12.5s-3.8,12.5-11.5,12.5
				S95.8,304.7,95.8,296.3z M107.3,306.8c6,0,9-3.5,9-10.5c0-6.9-3-10.3-9-10.3s-9,3.4-9,10.3C98.2,303.3,101.2,306.8,107.3,306.8z"
				/>
			<path id="XMLID_402_" class="st0" d="M126.4,308.6V284h1.8l0.3,3.1c2.5-2.1,5.2-3.1,8.2-3.1c3.9,0,6.4,1.1,7.5,3.4
				c2.8-2.2,5.7-3.4,8.6-3.4c5.5,0,8.2,2.7,8.2,8.2v16.4h-2.5v-16.4c0-4-1.9-6-5.8-6c-3.1,0-5.6,1.1-7.7,3.2v19.2h-2.5v-16.8
				c0-3.7-2-5.6-6-5.6c-2.9,0-5.5,1.1-7.7,3.2v19.2L126.4,308.6L126.4,308.6z"/>
		</g>
	</g>
</g>
</svg>
