<?xml version="1.0" encoding="utf-8"?>
<!-- Generator: Adobe Illustrator 19.0.0, SVG Export Plug-In . SVG Version: 6.00 Build 0)  -->
<svg version="1.1" id="Layer_1" xmlns="http://www.w3.org/2000/svg" xmlns:xlink="http://www.w3.org/1999/xlink" x="0px" y="0px"
	 viewBox="-214 185.3 412 226" style="enable-background:new -214 185.3 412 226;" xml:space="preserve">
<style type="text/css">
	.st0{display:none;fill:#212121;}
	.st1{fill:#11C1F3;}
	.st2{opacity:0.46;}
	.st3{fill:#212121;}
	.st4{opacity:0.6;}
</style>
<rect x="-65.5" y="166.1" class="st0" width="275" height="285.5"/>
<g id="Light">
	<g id="XMLID_126_">
		<path id="XMLID_123_" class="st1" d="M-150.4,326.5c-0.2,0.7-0.3,1.4-0.3,2.2c0,5,4.1,9.1,9.1,9.1h40.3c9.9,0,18,8.1,18,18
			c0,6.7-3.6,12.6-9.2,15.7c0.2-0.7,0.3-1.4,0.3-2.2c0-5-4.1-9.1-9.1-9.1h-40.5c-9.9,0-17.9-8.1-17.9-18
			C-159.6,335.6-156,329.6-150.4,326.5 M-147.8,322.9c-8.2,2.6-14.2,10.3-14.2,19.3c0,11.2,9,20.3,20.2,20.3h40.5
			c3.7,0,6.8,3,6.8,6.8c0,1.8-0.7,3.5-1.9,4.7l1.2,1.2c8.3-2.6,14.3-10.3,14.3-19.4c0-11.2-9.1-20.3-20.3-20.3c-0.1,0-40.3,0-40.3,0
			c-3.7,0-6.8-3-6.8-6.8c0-1.8,0.7-3.5,1.9-4.7C-146.8,323.6-147.3,323.3-147.8,322.9L-147.8,322.9z"/>
	</g>
	<g id="XMLID_131_">
		<path id="XMLID_128_" class="st1" d="M-120.8,223.6c3.9,0,7.1,3.2,7.1,7.1s-3.2,7.1-7.1,7.1s-7.1-3.2-7.1-7.1
			S-124.7,223.6-120.8,223.6 M-120.8,221.3c-5.2,0-9.4,4.2-9.4,9.4s4.2,9.4,9.4,9.4s9.4-4.2,9.4-9.4
			C-111.3,225.6-115.6,221.3-120.8,221.3L-120.8,221.3z"/>
	</g>
	<g id="XMLID_136_">
		<path id="XMLID_133_" class="st1" d="M-91.5,238.1c5.2,3.3,8.4,9.1,8.4,15.2c0,7.4-6,13.4-13.4,13.4h-25.3
			c-11,0.2-20.1,9.3-20.1,20.5c0,11.3,9.2,20.5,20.5,20.5c11.1,0,20.1-8.7,20.5-19.7v-0.1v-0.1c0-0.2-0.1-1.5-0.2-2.9h18v0.1
			l0.1,2.2l0,0v0.1c0,21.1-17.2,38.3-38.3,38.3s-38.3-17.2-38.3-38.3s17.2-38.3,38.3-38.3h20.3c5,0,9.1-4.1,9.1-9.1
			c0-0.6-0.1-1.1-0.2-1.7L-91.5,238.1 M-90.8,235.8h-4.8c0.8,1.1,1.3,2.5,1.3,4c0,3.7-3,6.8-6.8,6.8c0,0-19.9,0-20.3,0
			c-22.4,0-40.6,18.2-40.6,40.6s18.2,40.6,40.6,40.6s40.6-18.2,40.6-40.6c0-0.8,0-1.6-0.1-2.4l0,0c0-0.7-0.1-1.5-0.2-2.3h-22.8
			c0.5,1.8,0.6,5.3,0.6,5.3c-0.3,9.7-8.3,17.5-18.2,17.5c-10,0-18.2-8.1-18.2-18.2c0-9.9,8-18,17.9-18.2h25.2
			c8.7,0,15.7-7,15.7-15.7C-80.8,245.8-84.8,239.3-90.8,235.8L-90.8,235.8z"/>
	</g>
	<g id="XMLID_256_" class="st2">
		<g>
			<path id="XMLID_141_" class="st3" d="M-52.3,328.5v7.5c0,2-1.1,3-3.3,3v-0.7c1.7,0,2.6-0.8,2.6-2.4v-7.5L-52.3,328.5L-52.3,328.5
				z"/>
			<path id="XMLID_140_" class="st3" d="M-48.9,333.7c0-3.5,1.8-5.3,5.3-5.3s5.2,1.8,5.2,5.3s-1.7,5.3-5.2,5.3
				S-48.9,337.2-48.9,333.7z M-43.6,338.4c2.9,0,4.3-1.6,4.3-4.7s-1.4-4.6-4.3-4.6c-2.9,0-4.4,1.5-4.4,4.6S-46.6,338.4-43.6,338.4z"
				/>
			<path id="XMLID_139_" class="st3" d="M-35,338.9v-10.5h4.5c2,0,3,0.8,3,2.4c0,1.2-0.7,2-2.2,2.6c1.5,0.3,2.3,1.1,2.3,2.5
				c0,2-1.1,3-3.3,3H-35z M-30.7,338.3c1.7,0,2.5-0.8,2.5-2.3c0-1.4-1.1-2.1-3.2-2.1h-0.5v-0.5c2.4-0.2,3.7-1,3.7-2.4
				c0-1.2-0.8-1.8-2.3-1.8h-3.6v9.2h3.4C-30.7,338.4-30.7,338.3-30.7,338.3z"/>
			<path id="XMLID_138_" class="st3" d="M-23.8,338.6v-0.8c1.1,0.4,2.3,0.6,3.6,0.6c2.2,0,3.3-0.8,3.3-2.5c0-1.2-0.7-1.8-2.1-1.8
				h-2.2c-1.9,0-2.9-0.9-2.9-2.6c0-2,1.4-3,4.3-3c1.2,0,2.3,0.1,3.4,0.4v0.7c-1.1-0.3-2.2-0.5-3.4-0.5c-2.3,0-3.5,0.8-3.5,2.3
				c0,1.3,0.7,1.9,2.2,1.9h2.2c1.9,0,2.9,0.9,2.9,2.6c0,2.1-1.4,3.1-4.1,3.1C-21.5,339-22.7,338.9-23.8,338.6z"/>
			<path id="XMLID_137_" class="st3" d="M-0.6,328.5v0.7h-6.1v4.2h5.9v0.7h-5.9v5h-0.8v-10.5h6.9C-0.6,328.6-0.6,328.5-0.6,328.5z"
				/>
			<path id="XMLID_135_" class="st3" d="M2.3,333.7c0-3.5,1.8-5.3,5.3-5.3s5.2,1.8,5.2,5.3s-1.7,5.3-5.2,5.3
				C4,339,2.3,337.2,2.3,333.7z M7.5,338.4c2.9,0,4.3-1.6,4.3-4.7s-1.4-4.6-4.3-4.6s-4.4,1.5-4.4,4.6S4.6,338.4,7.5,338.4z"/>
			<path id="XMLID_134_" class="st3" d="M16.2,338.9v-10.5h4.3c1.9,0,2.8,0.8,2.8,2.5c0,1.4-1,2.5-3.1,3.1l3.5,4.9h-1.1l-3.5-4.9
				v-0.5c2.1-0.3,3.2-1.2,3.2-2.5s-0.7-1.9-2.1-1.9h-3.4v9.8H16.2L16.2,338.9z"/>
			<path id="XMLID_132_" class="st3" d="M38.7,328.5v0.7h-3.6v9.8h-0.8v-9.8h-3.5v-0.7H38.7z"/>
			<path id="XMLID_130_" class="st3" d="M41.1,333.7c0-3.5,1.8-5.3,5.3-5.3s5.2,1.8,5.2,5.3s-1.7,5.3-5.2,5.3
				C42.8,339,41.1,337.2,41.1,333.7z M46.3,338.4c2.9,0,4.3-1.6,4.3-4.7s-1.4-4.6-4.3-4.6s-4.4,1.5-4.4,4.6S43.4,338.4,46.3,338.4z"
				/>
			<path id="XMLID_129_" class="st3" d="M55,338.9v-10.5h0.8l4.7,9.6l4.4-9.6h0.7v10.5h-0.7v-9.1l-4.2,9.1h-0.6l-4.4-9.1v9.1H55
				L55,338.9z"/>
			<path id="XMLID_127_" class="st3" d="M69.1,333.7c0-3.5,1.8-5.3,5.3-5.3s5.2,1.8,5.2,5.3s-1.7,5.3-5.2,5.3
				C70.8,339,69.1,337.2,69.1,333.7z M74.3,338.4c2.9,0,4.3-1.6,4.3-4.7s-1.4-4.6-4.3-4.6s-4.4,1.5-4.4,4.6S71.4,338.4,74.3,338.4z"
				/>
			<path id="XMLID_125_" class="st3" d="M83,338.9v-10.5h4.3c1.9,0,2.8,0.8,2.8,2.5c0,1.4-1,2.5-3.1,3.1l3.5,4.9h-1.1l-3.5-4.9v-0.5
				c2.1-0.3,3.2-1.2,3.2-2.5s-0.7-1.9-2.1-1.9h-3.4v9.8H83L83,338.9z"/>
			<path id="XMLID_124_" class="st3" d="M93.5,338.9v-10.5h4.3c1.9,0,2.8,0.8,2.8,2.5c0,1.4-1,2.5-3.1,3.1l3.5,4.9h-0.9l-3.5-4.9
				v-0.5c2.1-0.3,3.2-1.2,3.2-2.5s-0.7-1.9-2.1-1.9h-3.4v9.8H93.5L93.5,338.9z"/>
			<path id="XMLID_122_" class="st3" d="M103.7,333.7c0-3.5,1.8-5.3,5.3-5.3s5.2,1.8,5.2,5.3s-1.7,5.3-5.2,5.3
				S103.7,337.2,103.7,333.7z M109,338.4c2.9,0,4.3-1.6,4.3-4.7s-1.4-4.6-4.3-4.6s-4.4,1.5-4.4,4.6C104.5,336.8,106,338.4,109,338.4
				z"/>
			<path id="XMLID_121_" class="st3" d="M116.7,328.5h0.8l1.7,9.7l3.4-9.7h0.8l3.5,9.8l1.9-9.8h0.7l-2.1,10.5h-1.1l-3.3-9.6
				l-3.3,9.6h-1.1L116.7,328.5z"/>
		</g>
	</g>
	<g id="XMLID_251_" class="st4">
		<g>
			<g id="XMLID_21_">
				<path id="XMLID_22_" class="st3" d="M135,276.3c0-3.6,1.8-5.4,5.5-5.4s5.5,1.8,5.5,5.4c0,3.5-1.8,5.3-5.5,5.3
					C136.9,281.6,135.1,279.8,135,276.3z M140.5,280.9c3,0,4.6-1.5,4.6-4.6s-1.5-4.7-4.6-4.7c-3,0-4.5,1.6-4.5,4.7
					C135.9,279.4,137.4,280.9,140.5,280.9z M138.2,279.7v-6.8h2.9c1.3,0,1.9,0.5,1.9,1.6c0,0.9-0.6,1.5-1.9,2l2.3,3.2h-1.2l-2.2-3.1
					V276c1.3-0.2,2-0.7,2-1.5c0-0.6-0.4-0.9-1.1-0.9h-1.8v6.1C139.1,279.7,138.2,279.7,138.2,279.7z"/>
			</g>
		</g>
	</g>
	<g id="XMLID_97_">
		<g>
			<g id="XMLID_56_">
				<path id="XMLID_62_" class="st3" d="M-29.2,307.3c-2.9,1-5.9,1.5-9,1.5c-12,0-18-5.8-18-17.5c0-11,5.9-16.5,17.6-16.5
					c3.2,0,6.3,0.5,9.4,1.4v2.2c-3-0.9-6-1.4-8.9-1.4c-10.4,0-15.6,4.8-15.6,14.4c0,10.2,5,15.4,15.1,15.4c2.1,0,4.4-0.3,6.9-1
					v-12.4h2.5C-29.2,293.4-29.2,307.3-29.2,307.3z"/>
				<path id="XMLID_61_" class="st3" d="M-21.8,296.3c0-8.4,3.8-12.5,11.5-12.5S1.2,288,1.2,296.3s-3.8,12.5-11.5,12.5
					S-21.8,304.7-21.8,296.3z M-10.4,306.8c6,0,9-3.5,9-10.5c0-6.9-3-10.3-9-10.3s-9,3.4-9,10.3C-19.4,303.3-16.4,306.8-10.4,306.8z
					"/>
				<path id="XMLID_60_" class="st3" d="M5.9,284h2.8l9.1,22.2l9-22.2h2.7l-10.6,25.4c-1.8,4.5-4.5,7.3-8.2,8.4l-0.7-2
					c2.8-1,5-3.3,6.5-6.8L5.9,284z"/>
				<path id="XMLID_59_" class="st3" d="M34.3,296.3c0-8.4,3.8-12.5,11.5-12.5s11.5,4.2,11.5,12.5s-3.8,12.5-11.5,12.5
					C38.2,308.8,34.3,304.7,34.3,296.3z M45.8,306.8c6,0,9-3.5,9-10.5c0-6.9-3-10.3-9-10.3s-9,3.4-9,10.3
					C36.8,303.3,39.8,306.8,45.8,306.8z"/>
				<path id="XMLID_58_" class="st3" d="M63.8,296.3c0-8.4,3.8-12.5,11.5-12.5s11.5,4.2,11.5,12.5s-3.8,12.5-11.5,12.5
					S63.8,304.7,63.8,296.3z M75.3,306.8c6,0,9-3.5,9-10.5c0-6.9-3-10.3-9-10.3s-9,3.4-9,10.3C66.2,303.3,69.2,306.8,75.3,306.8z"/>
				<path id="XMLID_57_" class="st3" d="M94.4,308.6V284h1.8l0.3,3.1c2.5-2.1,5.2-3.1,8.2-3.1c3.9,0,6.4,1.1,7.5,3.4
					c2.8-2.2,5.7-3.4,8.6-3.4c5.5,0,8.2,2.7,8.2,8.2v16.4h-2.5v-16.4c0-4-1.9-6-5.8-6c-3.1,0-5.6,1.1-7.7,3.2v19.2h-2.5v-16.8
					c0-3.7-2-5.6-6-5.6c-2.9,0-5.5,1.1-7.7,3.2v19.2L94.4,308.6L94.4,308.6z"/>
			</g>
		</g>
	</g>
</g>
</svg>
