<?xml version="1.0" encoding="utf-8"?>
<!-- Generator: Adobe Illustrator 19.0.0, SVG Export Plug-In . SVG Version: 6.00 Build 0)  -->
<svg version="1.1" id="Layer_1" xmlns="http://www.w3.org/2000/svg" xmlns:xlink="http://www.w3.org/1999/xlink" x="0px" y="0px"
	 viewBox="-176 155.3 488.1 286" style="enable-background:new -176 155.3 488.1 286;" xml:space="preserve">
<style type="text/css">
	.st0{fill:#F4F1E1;}
	.st1{fill:#FFFFFF;}
	.st2{opacity:0.76;enable-background:new    ;}
	.st3{fill:#169ECE;}
	.st4{enable-background:new    ;}
</style>
<g>
	<rect x="-176" y="155.3" class="st0" width="488.1" height="286"/>
	<polygon class="st1" points="-176,261.3 228.6,389.2 236.9,361.5 -176,230.9 	"/>
	<polygon class="st1" points="272.6,155.3 229.5,372.3 256.4,377.1 300.5,155.3 	"/>
	<polygon class="st1" points="149.8,155.3 97.6,328.9 115.1,333.1 168.6,155.3 	"/>
	<polygon class="st1" points="-40.8,155.3 -65.6,280.8 -50.7,283.6 -25.3,155.3 	"/>
	<polygon class="st1" points="-74.4,441.3 -59.3,441.3 -51.8,276.8 -66.9,276.3 	"/>
	<polygon class="st1" points="192.4,441.3 218.3,441.3 251.2,382.2 231.2,371.4 	"/>
	<polygon class="st1" points="312.1,387.1 258.2,367.8 250.2,395.4 312.1,415.5 	"/>
	<circle class="st1" cx="234.1" cy="379.6" r="46.5"/>
	<path class="st2" d="M-2.2,256.1v1.5h-1.5c0,0.4-0.4,0.8-0.8,0.8h-17.9c-0.4,0-0.8-0.3-0.8-0.8h-1.5v-1.5l11.2-4.5L-2.2,256.1z
		 M-2.2,271.1v1.5h-22.5v-1.5c0-0.4,0.4-0.8,0.8-0.8H-3C-2.5,270.4-2.2,270.7-2.2,271.1z M-18.7,259.1v9h1.5v-9h3v9h1.5v-9h3v9h1.5
		v-9h3v9h0.7c0.4,0,0.8,0.3,0.8,0.8v0.8h-19.5v-0.8c0-0.4,0.4-0.8,0.8-0.8h0.7v-9H-18.7z"/>
	<path class="st2" d="M-104.1,299.2c0,1.2-0.9,2.1-2.1,2.1h-7c-1.2,0-2.1-0.9-2.1-2.1v-7c0-1.2,0.9-2.1,2.1-2.1h7
		c1.2,0,2.1,0.9,2.1,2.1V299.2z"/>
	<path class="st2" d="M7.5,325.5v1.5H6c0,0.4-0.4,0.8-0.8,0.8h-17.9c-0.4,0-0.8-0.3-0.8-0.8H-15v-1.5l11.2-4.5L7.5,325.5z
		 M7.5,340.5v1.5H-15v-1.5c0-0.4,0.4-0.8,0.8-0.8H6.7C7.1,339.7,7.5,340,7.5,340.5z M-9,328.5v9h1.5v-9h3v9H-3v-9h3v9h1.5v-9h3v9
		h0.7c0.4,0,0.8,0.3,0.8,0.8v0.8h-19.5v-0.8c0-0.4,0.4-0.8,0.8-0.8h0.7v-9H-9z"/>
	<path class="st3" d="M-14,197.6l-5.3,11.2c-0.3,0.6-1,1-1.7,1s-1.4-0.4-1.7-1l-5.3-11.2c-0.4-0.8-0.5-1.7-0.5-2.6
		c0-4.1,3.3-7.4,7.4-7.4s7.4,3.3,7.4,7.4C-13.5,195.9-13.6,196.8-14,197.6z M-20.9,191.3c-2,0-3.7,1.7-3.7,3.7s1.7,3.7,3.7,3.7
		s3.7-1.7,3.7-3.7S-18.9,191.3-20.9,191.3z"/>
	<g class="st2">
		<path d="M258.8,295.4c-2.6-0.5-3.6-2-3.1-4.5s2-3.5,4.6-3c2.1,0.4,3.2,1.5,3.2,3.3l1.7-0.9l0.4,0.9l-2.2,1.3
			C262.8,294.9,261.3,295.9,258.8,295.4z M262.6,292.2c0.4-1.8-0.5-2.9-2.5-3.3s-3.2,0.3-3.5,2.1c-0.4,1.8,0.5,3,2.5,3.4
			C261,294.8,262.2,294,262.6,292.2z"/>
		<path d="M262.6,287.1c-1.1-0.2-1.6-1.1-1.3-2.6c0.1-0.5,0.2-1,0.4-1.4l-0.5-0.1c-0.6-0.1-1.1,0.3-1.2,1.3
			c-0.1,0.6-0.1,1.2-0.1,1.8l-0.8-0.2c-0.1-0.6,0-1.2,0.1-1.8c0.3-1.6,1.1-2.4,2.2-2.1l3.8,0.8l-0.1,0.5l-0.6,0.2
			c0.3,0.6,0.3,1.3,0.2,1.9C264.4,286.8,263.7,287.3,262.6,287.1z M262.1,284.7c-0.2,0.8,0,1.3,0.6,1.4s1-0.2,1.1-0.8
			c0.1-0.7,0.1-1.3-0.2-1.8l-1.1-0.2C262.4,283.7,262.2,284.2,262.1,284.7z"/>
		<path d="M265.5,281.2l-5.5-1.1l0.1-0.7h0.7c-0.4-0.7-0.5-1.3-0.3-2c0.3-1.4,1.1-1.9,2.5-1.7l3.5,0.7l-0.2,1l-3.5-0.7
			c-0.8-0.2-1.3,0.2-1.5,1c-0.1,0.6,0,1.1,0.4,1.7l4,0.8L265.5,281.2z"/>
		<path d="M265,274.8c-1.1-0.2-1.6-1.1-1.3-2.6c0.1-0.5,0.2-1,0.4-1.4l-0.5-0.1c-0.6-0.1-1.1,0.3-1.2,1.3c-0.1,0.6-0.1,1.2-0.1,1.8
			l-0.8-0.2c-0.1-0.6,0-1.2,0.1-1.8c0.3-1.6,1.1-2.4,2.2-2.1l3.8,0.8l-0.1,0.5l-0.6,0.2c0.3,0.6,0.3,1.3,0.2,1.9
			C266.8,274.5,266.1,275,265,274.8z M264.6,272.4c-0.2,0.8,0,1.3,0.6,1.4s1-0.2,1.1-0.8c0.1-0.7,0.1-1.3-0.2-1.8L265,271
			C264.8,271.4,264.7,271.9,264.6,272.4z"/>
		<path d="M262.3,268.4l0.2-1l4.5-0.1l-4-2.3l0.2-0.9l4.6-0.7l-4.2-1.7l0.2-1l5.2,2.5l-0.2,0.9l-4.5,0.8l3.8,2.3l-0.2,0.9
			L262.3,268.4z"/>
		<path d="M267.8,260.7c-1.1-0.2-1.6-1.1-1.3-2.6c0.1-0.5,0.2-1,0.4-1.4l-0.5-0.1c-0.6-0.1-1.1,0.3-1.2,1.3
			c-0.1,0.6-0.1,1.2-0.1,1.8l-0.8-0.2c-0.1-0.6,0-1.2,0.1-1.8c0.3-1.6,1.1-2.4,2.2-2.1l3.8,0.8l-0.1,0.5l-0.6,0.2
			c0.3,0.6,0.3,1.3,0.2,1.9C269.6,260.4,268.9,260.9,267.8,260.7z M267.4,258.3c-0.2,0.8,0,1.3,0.6,1.4s1-0.2,1.1-0.8
			c0.1-0.7,0.1-1.3-0.2-1.8l-1.1-0.2C267.6,257.3,267.5,257.8,267.4,258.3z"/>
		<path d="M264.3,253.5l0.1-0.6h0.9l0.3-1.5l0.8,0.2l-0.3,1.3l3.2,0.6c0.5,0.1,0.8-0.1,0.9-0.5l0.1-0.7l0.8,0.2l-0.2,0.9
			c-0.2,0.9-0.8,1.3-1.8,1.1L264.3,253.5z"/>
		<path d="M271.7,248.6l-0.9-0.2c0.4-0.7,0.7-1.6,0.9-2.5c0.3-1.3-0.1-2-1-2.2c-0.8-0.2-1.3,0.2-1.5,1.2l-0.2,1
			c-0.3,1.6-1.2,2.2-2.5,2c-1.4-0.3-2-1.4-1.6-3.5c0.2-0.9,0.4-1.7,0.8-2.4l0.9,0.2c-0.4,0.7-0.7,1.5-0.9,2.4c-0.3,1.4,0,2.1,1,2.3
			c0.8,0.2,1.3-0.2,1.5-1.2l0.2-1c0.3-1.6,1.2-2.3,2.5-2c1.5,0.3,2,1.4,1.6,3.4C272.3,247,272.1,247.8,271.7,248.6z"/>
		<path d="M266.9,240.5l0.1-0.6h0.9l0.3-1.5l0.8,0.2l-0.3,1.3l3.2,0.6c0.5,0.1,0.8-0.1,0.9-0.5l0.1-0.7l0.8,0.2l-0.2,0.9
			c-0.2,0.9-0.8,1.3-1.8,1.1L266.9,240.5z"/>
		<path d="M274,238.3l-5.5-1.1l0.1-0.7h0.7c-0.4-0.6-0.5-1.2-0.4-1.9l0.8,0.2c-0.1,0.7,0,1.2,0.4,1.7l4,0.8L274,238.3z"/>
		<path d="M269.6,231.3c0.3-1.6,1.2-2.2,2.8-1.9c0.2,0,0.5,0.1,0.7,0.2l-0.8,3.9c1.1,0.2,1.8-0.3,2.1-1.6c0.1-0.6,0.2-1.2,0.1-1.7
			l0.8,0.2c0,0.5,0,1.1-0.1,1.8c-0.4,1.9-1.5,2.7-3.4,2.3C270,234,269.3,233,269.6,231.3z M271.6,233.3l0.6-3
			c-1-0.2-1.6,0.2-1.7,1.1C270.2,232.5,270.6,233.1,271.6,233.3z"/>
		<path d="M270.8,225.4c0.3-1.6,1.2-2.2,2.8-1.9c0.2,0,0.5,0.1,0.7,0.2l-0.8,3.9c1.1,0.2,1.8-0.3,2.1-1.6c0.1-0.6,0.2-1.2,0.1-1.7
			l0.8,0.2c0,0.5,0,1.1-0.1,1.8c-0.4,1.9-1.5,2.7-3.4,2.3C271.2,228.1,270.5,227.1,270.8,225.4z M272.7,227.4l0.6-3
			c-1-0.2-1.6,0.2-1.7,1.1C271.4,226.5,271.8,227.1,272.7,227.4z"/>
		<path d="M270.6,221.5l0.1-0.6h0.9l0.3-1.5l0.8,0.2l-0.3,1.3l3.2,0.6c0.5,0.1,0.8-0.1,0.9-0.5l0.1-0.7l0.8,0.2l-0.2,0.9
			c-0.2,0.9-0.8,1.3-1.8,1.1L270.6,221.5z"/>
	</g>
	<g class="st2">
		<path d="M118.7,298.9l-0.8-0.2c0.5-0.6,0.8-1.3,1.1-2.2c0.3-1.1,0.1-1.9-0.7-2.1c-0.7-0.2-1.2,0.1-1.5,0.9l-0.3,0.9
			c-0.4,1.4-1.2,1.9-2.5,1.5s-1.6-1.5-1.1-3.3c0.2-0.8,0.5-1.5,0.9-2.1l0.8,0.2c-0.5,0.6-0.8,1.3-1,2.1c-0.4,1.2-0.1,1.9,0.7,2.2
			c0.7,0.2,1.2-0.1,1.4-0.9l0.3-0.9c0.4-1.4,1.3-2,2.5-1.6c1.3,0.4,1.7,1.5,1.2,3.2C119.4,297.5,119.1,298.2,118.7,298.9z"/>
		<path d="M119.2,292.7c-1-0.3-1.3-1.1-0.9-2.4c0.1-0.4,0.3-0.8,0.5-1.3l-0.5-0.1c-0.6-0.2-1,0.2-1.2,1.1c-0.2,0.5-0.2,1-0.2,1.6
			l-0.7-0.2c0-0.6,0.1-1.1,0.2-1.6c0.4-1.5,1.2-2,2.2-1.7l3.4,1l-0.1,0.5l-0.6,0.2c0.2,0.6,0.2,1.2,0,1.7
			C120.9,292.6,120.2,293,119.2,292.7z M119,290.5c-0.2,0.8-0.1,1.2,0.5,1.4c0.5,0.2,0.9-0.1,1.1-0.6c0.2-0.6,0.2-1.2,0-1.7l-1-0.3
			C119.3,289.6,119.1,290.1,119,290.5z"/>
		<path d="M116,284.7l6.7,2l-0.3,0.9l-6.7-2L116,284.7z"/>
		<path d="M121.5,285c-1-0.3-1.3-1.1-0.9-2.4c0.1-0.4,0.3-0.8,0.5-1.3l-0.5-0.1c-0.6-0.2-1,0.2-1.2,1.1c-0.2,0.5-0.2,1-0.2,1.6
			l-0.7-0.2c0-0.6,0.1-1.1,0.2-1.6c0.4-1.5,1.2-2,2.2-1.7l3.4,1l-0.1,0.5l-0.6,0.2c0.2,0.6,0.2,1.2,0,1.7
			C123.2,284.9,122.5,285.3,121.5,285z M121.3,282.8c-0.2,0.8-0.1,1.2,0.5,1.4c0.5,0.2,0.9-0.1,1.1-0.6c0.2-0.6,0.2-1.2,0-1.7
			l-1-0.3C121.6,282,121.4,282.4,121.3,282.8z"/>
		<path d="M124.7,280l-4.9-1.5l0.2-0.6h0.7c-0.3-0.6-0.3-1.2-0.2-1.7c0.2-0.7,0.6-1.1,1.1-1.3c-0.3-0.7-0.3-1.3-0.2-1.8
			c0.3-1.1,1.1-1.5,2.4-1.1l3,0.9l-0.3,0.9l-3.1-0.9c-0.7-0.2-1.2,0-1.4,0.6c-0.1,0.5-0.1,1,0.2,1.5l3.6,1.1l-0.3,0.9l-3.1-0.9
			c-0.7-0.2-1.2,0-1.4,0.6c-0.1,0.5-0.1,1,0.2,1.5l3.6,1.1L124.7,280z"/>
		<path d="M120.8,268.5l0.8,0.2l-0.3,0.9l-0.8-0.2L120.8,268.5z M122.6,269.1l4.9,1.5l-0.3,0.9l-4.9-1.5L122.6,269.1z"/>
		<path d="M125.3,265.9c-2.3-0.7-3.1-2.1-2.4-4.4c0.7-2.2,2.1-3,4.4-2.3s3,2.1,2.4,4.3C129,265.8,127.5,266.5,125.3,265.9z
			 M129,263.3c0.5-1.6-0.2-2.7-2-3.2s-2.9,0-3.4,1.6s0.2,2.7,1.9,3.2C127.3,265.5,128.5,264.9,129,263.3z"/>
		<path d="M124.3,256.9l0.3-0.9l2,0.6c0-0.4,0-0.8,0.1-1.3c0.5-1.6,1.5-2.1,3.1-1.6c1.7,0.5,2.3,1.6,1.8,3.2
			c-0.2,0.7-0.5,1.3-0.8,1.9L124.3,256.9z M130.4,257.8c0.2-0.3,0.3-0.6,0.4-1c0.3-1.1-0.1-1.8-1.4-2.2c-1-0.3-1.7,0-2,1
			c-0.1,0.4-0.2,0.9-0.1,1.3L130.4,257.8z"/>
		<path d="M128.4,249.9c0.4-1.4,1.3-1.9,2.7-1.5c0.2,0.1,0.4,0.1,0.6,0.2l-1,3.4c1,0.3,1.7-0.1,2-1.3c0.2-0.6,0.3-1.1,0.3-1.5
			l0.7,0.2c0,0.5-0.1,1-0.3,1.6c-0.5,1.7-1.6,2.3-3.3,1.8C128.5,252.4,127.9,251.4,128.4,249.9z M130,251.9l0.8-2.7
			c-0.9-0.2-1.4,0-1.7,0.9C128.8,251,129.1,251.6,130,251.9z"/>
		<path d="M127.9,245.1l0.8,0.2l-0.3,0.9l-0.8-0.2L127.9,245.1z M129.7,245.7l4.9,1.5l-0.3,0.9l-4.9-1.5L129.7,245.7z"/>
		<path d="M136,241.4c0,0.7-0.1,1.4-0.4,2.3c-0.4,1.5-1.5,1.9-3.2,1.4c-1.6-0.5-2.1-1.5-1.7-3c0.1-0.4,0.3-0.8,0.6-1.1l-2-0.6
			l0.3-0.9L136,241.4z M132.1,241.2c-0.3,0.3-0.5,0.7-0.6,1.1c-0.3,1,0.1,1.6,1.1,2c1.2,0.4,2,0.1,2.3-0.9c0.1-0.4,0.2-0.9,0.2-1.3
			L132.1,241.2z"/>
		<path d="M137.2,237.7l-0.8-0.2c0.5-0.6,0.8-1.3,1.1-2.2c0.3-1.2,0.1-1.9-0.7-2.1c-0.7-0.2-1.2,0.1-1.5,0.9L135,235
			c-0.4,1.4-1.2,1.9-2.5,1.5s-1.6-1.5-1.1-3.3c0.2-0.8,0.5-1.5,0.9-2.1l0.8,0.2c-0.5,0.6-0.8,1.3-1,2.1c-0.4,1.2-0.1,1.9,0.7,2.2
			c0.7,0.2,1.2-0.1,1.4-0.9l0.3-0.9c0.4-1.4,1.3-2,2.5-1.6c1.3,0.4,1.7,1.5,1.2,3.2C137.9,236.3,137.6,237,137.2,237.7z"/>
		<path d="M133.5,230l0.2-0.5l0.9,0.1l0.4-1.3l0.7,0.2l-0.4,1.2l2.8,0.9c0.5,0.1,0.7,0,0.9-0.4l0.2-0.6l0.7,0.2l-0.2,0.8
			c-0.2,0.8-0.8,1.1-1.7,0.8L133.5,230z"/>
		<path d="M140.2,228.6l-4.9-1.5l0.2-0.6h0.7c-0.3-0.6-0.3-1.1-0.2-1.7l0.7,0.2c-0.2,0.6-0.1,1.1,0.2,1.6l3.6,1.1L140.2,228.6z"/>
		<path d="M136.8,221.9c0.4-1.4,1.3-1.9,2.7-1.5c0.2,0.1,0.4,0.1,0.6,0.2l-1,3.4c1,0.3,1.7-0.1,2-1.3c0.2-0.6,0.3-1.1,0.3-1.5
			l0.7,0.2c0,0.5-0.1,1-0.3,1.6c-0.5,1.7-1.6,2.3-3.3,1.8C137,224.4,136.4,223.4,136.8,221.9z M138.4,223.9l0.8-2.7
			c-0.9-0.2-1.4,0-1.7,0.9C137.3,223,137.5,223.6,138.4,223.9z"/>
		<path d="M138.4,216.6c0.4-1.4,1.3-1.9,2.7-1.5c0.2,0.1,0.4,0.1,0.6,0.2l-1,3.4c1,0.3,1.7-0.1,2-1.3c0.2-0.6,0.3-1.1,0.3-1.5
			l0.7,0.2c0,0.5-0.1,1-0.3,1.6c-0.5,1.7-1.6,2.3-3.3,1.8C138.5,219.1,138,218.1,138.4,216.6z M140,218.6l0.8-2.7
			c-0.9-0.2-1.4,0.1-1.7,0.9C138.9,217.7,139.1,218.3,140,218.6z"/>
		<path d="M138.6,213.1l0.2-0.5l0.9,0.1l0.4-1.3l0.7,0.2l-0.4,1.2l2.8,0.9c0.5,0.1,0.7,0,0.9-0.4l0.2-0.6l0.7,0.2l-0.2,0.8
			c-0.2,0.8-0.8,1.1-1.7,0.8L138.6,213.1z"/>
	</g>
	<g class="st2">
		<path d="M5.6,267.6v-7h3c1.3,0,2,0.5,2,1.6c0,0.8-0.4,1.4-1.3,1.7c0.9,0.2,1.4,0.7,1.4,1.6c0,1.4-0.7,2.1-2.2,2.1L5.6,267.6
			L5.6,267.6z M8.5,266.8c0.8,0,1.2-0.4,1.2-1.3c0-0.8-0.6-1.2-1.7-1.2H7.6v-0.6c1.3-0.2,2-0.7,2-1.4c0-0.7-0.4-1-1.1-1h-2v5.5H8.5z
			"/>
		<path d="M11.4,262.5h1l1.5,4l1.5-4h1l-2.1,5.3c-0.4,0.9-0.9,1.5-1.7,1.7l-0.3-0.6c0.6-0.3,1-0.7,1.2-1.2L11.4,262.5z"/>
		<path d="M17.2,260.6h0.9v2.1c0.4-0.2,0.8-0.2,1.2-0.2c1.6,0,2.4,0.8,2.4,2.5c0,1.8-0.9,2.7-2.6,2.7c-0.7,0-1.4-0.1-2-0.2v-6.9
			H17.2z M18.1,266.7c0.3,0.1,0.7,0.1,1.1,0.1c1.1,0,1.7-0.6,1.7-1.9c0-1.1-0.5-1.6-1.5-1.6c-0.5,0-0.9,0.1-1.2,0.3v3.1H18.1z"/>
		<path d="M23.9,260.6v7H23v-7H23.9z"/>
		<path d="M25.2,265c0-1.7,0.8-2.6,2.4-2.6s2.4,0.9,2.4,2.6s-0.8,2.6-2.4,2.6S25.2,266.7,25.2,265z M27.6,266.8c1,0,1.5-0.6,1.5-1.9
			c0-1.2-0.5-1.8-1.5-1.8s-1.5,0.6-1.5,1.8C26.1,266.2,26.6,266.8,27.6,266.8z"/>
		<path d="M31.2,267.3v-0.8c0.6,0.2,1.2,0.3,1.8,0.3c0.8,0,1.2-0.2,1.2-0.7s-0.3-0.7-0.9-0.7h-0.7c-1.1,0-1.7-0.5-1.7-1.5
			s0.7-1.5,2.1-1.5c0.6,0,1.2,0.1,1.8,0.2v0.8c-0.6-0.2-1.2-0.3-1.8-0.3c-0.9,0-1.3,0.2-1.3,0.7s0.3,0.7,0.8,0.7h0.7
			c1.2,0,1.8,0.5,1.8,1.5s-0.7,1.5-2.1,1.5C32.5,267.6,31.8,267.5,31.2,267.3z"/>
	</g>
	<g class="st2">
		<path d="M9.2,279.6v-7h3c1.3,0,2,0.5,2,1.6c0,0.8-0.4,1.4-1.3,1.7c0.9,0.2,1.4,0.7,1.4,1.6c0,1.4-0.7,2.1-2.2,2.1L9.2,279.6
			L9.2,279.6z M12.1,278.8c0.8,0,1.2-0.4,1.2-1.3c0-0.8-0.6-1.2-1.7-1.2h-0.4v-0.6c1.3-0.2,2-0.7,2-1.4c0-0.7-0.4-1-1.1-1h-2v5.5
			H12.1z"/>
		<path d="M15.4,278c0-1.1,0.7-1.6,2.1-1.6c0.4,0,0.9,0,1.3,0.1V276c0-0.6-0.5-0.9-1.4-0.9c-0.5,0-1.1,0.1-1.6,0.2v-0.7
			c0.6-0.2,1.1-0.2,1.6-0.2c1.5,0,2.3,0.5,2.3,1.6v3.5h-0.5l-0.3-0.5c-0.5,0.3-1.1,0.5-1.7,0.5C16,279.6,15.4,279.1,15.4,278z
			 M17.5,277.2c-0.8,0-1.2,0.3-1.2,0.8s0.3,0.8,0.9,0.8s1.2-0.2,1.6-0.5v-1.1C18.4,277.2,17.9,277.2,17.5,277.2z"/>
		<path d="M21.2,279.6v-5.1h0.6l0.2,0.7c0.5-0.4,1.1-0.7,1.7-0.7c1.3,0,1.9,0.6,1.9,1.9v3.2h-0.9v-3.2c0-0.8-0.4-1.1-1.1-1.1
			c-0.5,0-1,0.2-1.5,0.6v3.7H21.2z"/>
		<path d="M27.1,279.6v-7H28v2.3c0.5-0.3,1.1-0.4,1.7-0.4c1.3,0,1.9,0.5,1.9,1.5c0,0.7-0.5,1.2-1.5,1.5l1.6,2.2h-1.1l-1.6-2.2V277
			c1.1-0.1,1.7-0.5,1.7-1.1c0-0.5-0.4-0.7-1.1-0.7c-0.6,0-1.1,0.2-1.7,0.5v3.9L27.1,279.6L27.1,279.6z"/>
	</g>
	<g class="st4">
		<path class="st3" d="M-35.3,223.6c-0.6,0.2-1.3,0.4-2,0.4c-2.8,0-4.2-1.3-4.2-4c0-2.5,1.3-3.8,4-3.8c0.8,0,1.5,0.1,2.1,0.3v0.9
			c-0.7-0.3-1.3-0.4-2-0.4c-2.1,0-3.1,1-3.1,3c0,2.1,1,3.2,3.1,3.2c0.3,0,0.7,0,1.1-0.1v-2.6h1C-35.3,220.5-35.3,223.6-35.3,223.6z"
			/>
		<path class="st3" d="M-34,221.1c0-1.9,0.9-2.8,2.7-2.8s2.7,0.9,2.7,2.8c0,1.9-0.9,2.8-2.7,2.8C-33.1,223.9-34,223-34,221.1z
			 M-31.3,223.1c1.1,0,1.7-0.7,1.7-2s-0.6-2-1.7-2c-1.1,0-1.7,0.7-1.7,2C-33,222.4-32.5,223.1-31.3,223.1z"/>
		<path class="st3" d="M-28,218.3h1.1l1.6,4.4l1.6-4.4h1.1l-2.3,5.8c-0.4,1-1,1.7-1.9,1.9l-0.4-0.7c0.6-0.3,1.1-0.7,1.4-1.3
			L-28,218.3z"/>
		<path class="st3" d="M-21.9,221.1c0-1.9,0.9-2.8,2.7-2.8s2.7,0.9,2.7,2.8c0,1.9-0.9,2.8-2.7,2.8C-21,223.9-21.9,223-21.9,221.1z
			 M-19.3,223.1c1.1,0,1.7-0.7,1.7-2s-0.6-2-1.7-2s-1.7,0.7-1.7,2C-20.9,222.4-20.4,223.1-19.3,223.1z"/>
		<path class="st3" d="M-15.5,221.1c0-1.9,0.9-2.8,2.7-2.8s2.7,0.9,2.7,2.8c0,1.9-0.9,2.8-2.7,2.8C-14.6,223.9-15.5,223-15.5,221.1z
			 M-12.8,223.1c1.1,0,1.7-0.7,1.7-2s-0.6-2-1.7-2s-1.7,0.7-1.7,2C-14.5,222.4-13.9,223.1-12.8,223.1z"/>
		<path class="st3" d="M-8.8,223.9v-5.6h0.7l0.2,0.7c0.5-0.5,1.1-0.7,1.8-0.7c0.8,0,1.4,0.3,1.7,0.8c0.6-0.5,1.2-0.8,1.9-0.8
			c1.3,0,1.9,0.7,1.9,2.1v3.5h-1v-3.6c0-0.8-0.4-1.3-1.1-1.3c-0.5,0-1,0.2-1.5,0.7v4.1h-1v-3.5c0-0.9-0.4-1.3-1.1-1.3
			c-0.6,0-1.1,0.2-1.5,0.7v4.1h-1V223.9z"/>
	</g>
	<g class="st4">
		<path d="M-46.2,238.6h-1l3.3-7.7h1.1l3.3,7.7h-1.1l-1-2.4h-2.5l0.3-0.8h1.9l-1.4-3.5L-46.2,238.6z"/>
		<path d="M-39.3,233h1.1l1.6,4.4l1.6-4.4h1.1l-2.3,5.8c-0.4,1-1,1.7-1.9,1.9l-0.4-0.7c0.6-0.3,1.1-0.7,1.4-1.3L-39.3,233z"/>
		<path d="M-33,238.6V233h0.7l0.2,0.7c0.6-0.5,1.2-0.7,1.9-0.7c1.4,0,2.1,0.7,2.1,2.1v3.5h-1V235c0-0.8-0.4-1.3-1.3-1.3
			c-0.6,0-1.1,0.2-1.6,0.7v4.1h-1V238.6z"/>
		<path d="M-26.8,236.9c0-1.2,0.8-1.7,2.3-1.7c0.5,0,1,0,1.5,0.1v-0.5c0-0.6-0.5-1-1.5-1c-0.6,0-1.2,0.1-1.8,0.3v-0.8
			c0.6-0.2,1.2-0.3,1.8-0.3c1.7,0,2.5,0.6,2.5,1.8v3.9h-0.6l-0.3-0.6c-0.6,0.4-1.2,0.6-1.8,0.6C-26.1,238.6-26.8,238-26.8,236.9z
			 M-24.5,236c-0.9,0-1.3,0.3-1.3,0.9s0.3,0.9,1,0.9s1.3-0.2,1.7-0.5v-1.2C-23.5,236-24,236-24.5,236z"/>
		<path d="M-11.8,238.3c-0.7,0.2-1.4,0.3-2.1,0.3c-2.7,0-4-1.3-4-4c0-2.5,1.3-3.8,4-3.8c0.8,0,1.5,0.1,2.1,0.3v0.9
			c-0.7-0.3-1.3-0.4-2-0.4c-2.1,0-3.1,1-3.1,3c0,2.1,1,3.2,3.1,3.2c0.7,0,1.4-0.1,2-0.4C-11.8,237.4-11.8,238.3-11.8,238.3z"/>
		<path d="M-10.5,235.8c0-1.9,0.9-2.8,2.7-2.8s2.7,0.9,2.7,2.8c0,1.9-0.9,2.8-2.7,2.8S-10.5,237.7-10.5,235.8z M-7.9,237.8
			c1.1,0,1.7-0.7,1.7-2s-0.6-2-1.7-2s-1.7,0.7-1.7,2C-9.6,237.1-9,237.8-7.9,237.8z"/>
		<path d="M-3.8,238.6V233h0.7l0.2,0.7c0.5-0.5,1.1-0.7,1.8-0.7v0.8c-0.7,0-1.2,0.2-1.6,0.7v4.1H-3.8z"/>
		<path d="M-0.2,233.2c0.7-0.2,1.5-0.2,2.3-0.2c1.8,0,2.7,0.9,2.7,2.7c0,2-0.9,3-2.7,3c-0.5,0-0.9-0.1-1.3-0.3v2.3h-1
			C-0.2,240.7-0.2,233.2-0.2,233.2z M0.8,237.4c0.4,0.2,0.8,0.3,1.3,0.3c1.2,0,1.8-0.7,1.8-2.1c0-1.2-0.6-1.8-1.7-1.8
			c-0.5,0-0.9,0-1.3,0.1L0.8,237.4L0.8,237.4z"/>
		<path d="M6.9,237.6v1h-1v-1H6.9z"/>
	</g>
	<g class="st2">
		<path d="M-33.2,357.1v-7h3c1.3,0,2,0.5,2,1.6c0,0.8-0.4,1.4-1.3,1.7c0.9,0.2,1.4,0.7,1.4,1.6c0,1.4-0.7,2.1-2.2,2.1L-33.2,357.1
			L-33.2,357.1z M-30.3,356.4c0.8,0,1.2-0.4,1.2-1.3c0-0.8-0.6-1.2-1.7-1.2h-0.4v-0.6c1.3-0.2,2-0.7,2-1.4c0-0.7-0.4-1-1.1-1h-2v5.5
			H-30.3z"/>
		<path d="M-27,355.6c0-1.1,0.7-1.6,2.1-1.6c0.4,0,0.9,0,1.3,0.1v-0.5c0-0.6-0.5-0.9-1.4-0.9c-0.5,0-1.1,0.1-1.6,0.2v-0.7
			c0.6-0.2,1.1-0.2,1.6-0.2c1.5,0,2.3,0.5,2.3,1.6v3.5h-0.5l-0.3-0.5c-0.5,0.3-1.1,0.5-1.7,0.5C-26.4,357.1-27,356.6-27,355.6z
			 M-24.9,354.7c-0.8,0-1.2,0.3-1.2,0.8s0.3,0.8,0.9,0.8s1.2-0.2,1.6-0.5v-1.1C-24,354.7-24.5,354.7-24.9,354.7z"/>
		<path d="M-21.2,357.1V352h0.6l0.2,0.7c0.5-0.4,1.1-0.7,1.7-0.7c1.3,0,1.9,0.6,1.9,1.9v3.2h-0.9v-3.2c0-0.8-0.4-1.1-1.1-1.1
			c-0.5,0-1,0.2-1.5,0.6v3.7H-21.2z"/>
		<path d="M-15.3,357.1v-7h0.9v2.3c0.5-0.3,1.1-0.4,1.7-0.4c1.3,0,1.9,0.5,1.9,1.5c0,0.7-0.5,1.2-1.5,1.5l1.6,2.2h-1.1l-1.6-2.2
			v-0.4c1.1-0.1,1.7-0.5,1.7-1.1c0-0.5-0.4-0.7-1.1-0.7c-0.6,0-1.1,0.2-1.7,0.5v3.9L-15.3,357.1L-15.3,357.1z"/>
		<path d="M-7.4,354.5c0-1.7,0.8-2.6,2.4-2.6s2.4,0.9,2.4,2.6s-0.8,2.6-2.4,2.6S-7.4,356.2-7.4,354.5z M-4.9,356.4
			c1,0,1.5-0.6,1.5-1.9c0-1.2-0.5-1.8-1.5-1.8s-1.5,0.6-1.5,1.8C-6.5,355.7-6,356.4-4.9,356.4z"/>
		<path d="M-1.3,357.1v-5.4c0-1.2,0.7-1.9,2.1-1.9c0.4,0,0.8,0.1,1.1,0.2v0.7c-0.3-0.1-0.7-0.2-1.1-0.2c-0.8,0-1.2,0.4-1.2,1.1v0.3
			h1.6v0.7h-1.6v4.4L-1.3,357.1L-1.3,357.1z"/>
		<path d="M4.4,356.9V356c0.7,0.3,1.5,0.4,2.4,0.4c1.2,0,1.8-0.4,1.8-1.3c0-0.7-0.4-1.1-1.3-1.1h-1c-1.5,0-2.2-0.6-2.2-1.9
			s0.9-2,2.8-2c0.8,0,1.6,0.1,2.3,0.3v0.8c-0.7-0.3-1.5-0.4-2.3-0.4c-1.3,0-1.9,0.4-1.9,1.3c0,0.7,0.4,1.1,1.3,1.1h0.9
			c1.5,0,2.2,0.6,2.2,1.9c0,1.4-0.9,2.1-2.7,2.1C5.9,357.1,5.1,357.1,4.4,356.9z"/>
		<path d="M10.1,352h1l1.5,4l1.5-4h1l-2.1,5.3c-0.4,0.9-0.9,1.5-1.7,1.7l-0.3-0.6c0.6-0.3,1-0.7,1.2-1.2L10.1,352z"/>
		<path d="M15.8,357.1V352h0.6l0.2,0.7c0.4-0.4,1-0.7,1.6-0.7v0.8c-0.6,0-1.1,0.2-1.5,0.6v3.7H15.8z"/>
		<path d="M20.1,350.1v0.9h-0.9v-0.9H20.1z M20.1,352v5.1h-0.9V352H20.1z"/>
		<path d="M21.4,355.6c0-1.1,0.7-1.6,2.1-1.6c0.4,0,0.9,0,1.3,0.1v-0.5c0-0.6-0.5-0.9-1.4-0.9c-0.5,0-1.1,0.1-1.6,0.2v-0.7
			c0.6-0.2,1.1-0.2,1.6-0.2c1.5,0,2.3,0.5,2.3,1.6v3.5h-0.5l-0.3-0.5c-0.5,0.3-1.1,0.5-1.7,0.5C22,357.1,21.4,356.6,21.4,355.6z
			 M23.5,354.7c-0.8,0-1.2,0.3-1.2,0.8s0.3,0.8,0.9,0.8s1.2-0.2,1.6-0.5v-1.1C24.4,354.7,24,354.7,23.5,354.7z"/>
	</g>
	<g class="st2">
		<path d="M-34.7,367.6c0-1.1,0.7-1.6,2.1-1.6c0.4,0,0.9,0,1.3,0.1v-0.5c0-0.6-0.5-0.9-1.4-0.9c-0.5,0-1.1,0.1-1.6,0.2v-0.7
			c0.6-0.2,1.1-0.2,1.6-0.2c1.5,0,2.3,0.5,2.3,1.6v3.5h-0.5l-0.3-0.5c-0.5,0.3-1.1,0.5-1.7,0.5C-34.1,369.1-34.7,368.6-34.7,367.6z
			 M-32.6,366.7c-0.8,0-1.2,0.3-1.2,0.8s0.3,0.8,0.9,0.8c0.6,0,1.2-0.2,1.6-0.5v-1.1C-31.7,366.7-32.2,366.7-32.6,366.7z"/>
		<path d="M-28.9,369.1V364h0.6l0.2,0.7c0.5-0.4,1.1-0.7,1.7-0.7c1.3,0,1.9,0.6,1.9,1.9v3.2h-0.9v-3.2c0-0.8-0.4-1.1-1.1-1.1
			c-0.5,0-1,0.2-1.5,0.6v3.7H-28.9z"/>
		<path d="M-18.7,368.8c-0.6,0.2-1.4,0.3-2.3,0.3c-1.5,0-2.3-0.9-2.3-2.7c0-1.6,0.8-2.5,2.4-2.5c0.4,0,0.9,0.1,1.3,0.2V362h0.9
			V368.8z M-19.6,365c-0.4-0.2-0.8-0.3-1.2-0.3c-1,0-1.5,0.5-1.5,1.6c0,1.3,0.5,1.9,1.5,1.9c0.5,0,0.9-0.1,1.2-0.2V365z"/>
		<path d="M-14.9,365.6c0-2.4,1.2-3.5,3.5-3.5s3.5,1.2,3.5,3.5c0,2.4-1.2,3.5-3.5,3.5C-13.8,369.1-14.9,368-14.9,365.6z
			 M-11.4,368.4c1.7,0,2.5-0.9,2.5-2.8s-0.8-2.8-2.5-2.8s-2.6,0.9-2.6,2.8S-13.1,368.4-11.4,368.4z"/>
		<path d="M-7.4,364h1l1.5,4l1.5-4h1l-2.1,5.1h-0.8L-7.4,364z"/>
		<path d="M0.3,364c1.5,0,2.2,0.7,2.2,2.2c0,0.2,0,0.4,0,0.7h-3.6c0,1,0.6,1.6,1.8,1.6c0.6,0,1.1-0.1,1.6-0.2v0.7
			c-0.5,0.1-1,0.2-1.7,0.2c-1.8,0-2.6-0.9-2.6-2.6C-2,364.8-1.2,364,0.3,364z M-1.1,366h2.8c0-0.9-0.5-1.3-1.3-1.3
			C-0.6,364.7-1.1,365.1-1.1,366z"/>
		<path d="M3.7,369.1V364h0.6l0.2,0.7c0.4-0.4,1-0.7,1.6-0.7v0.8c-0.6,0-1.1,0.2-1.5,0.6v3.7H3.7z"/>
		<path d="M7,368.9v-0.8c0.6,0.2,1.2,0.3,1.8,0.3c0.8,0,1.2-0.2,1.2-0.7S9.7,367,9.1,367H8.5c-1.1,0-1.7-0.5-1.7-1.5
			s0.7-1.5,2.1-1.5c0.6,0,1.2,0.1,1.8,0.2v0.8c-0.6-0.2-1.2-0.3-1.8-0.3c-0.9,0-1.3,0.2-1.3,0.7s0.3,0.7,0.8,0.7h0.7
			c1.2,0,1.8,0.5,1.8,1.5s-0.7,1.5-2.1,1.5C8.2,369.1,7.6,369,7,368.9z"/>
		<path d="M14.3,364c1.5,0,2.2,0.7,2.2,2.2c0,0.2,0,0.4,0,0.7h-3.6c0,1,0.6,1.6,1.8,1.6c0.6,0,1.1-0.1,1.6-0.2v0.7
			c-0.5,0.1-1,0.2-1.7,0.2c-1.8,0-2.6-0.9-2.6-2.6C11.9,364.8,12.7,364,14.3,364z M12.8,366h2.8c0-0.9-0.5-1.3-1.3-1.3
			C13.4,364.7,12.9,365.1,12.8,366z"/>
		<path d="M17.4,367.6c0-1.1,0.7-1.6,2.1-1.6c0.4,0,0.9,0,1.3,0.1v-0.5c0-0.6-0.5-0.9-1.4-0.9c-0.5,0-1.1,0.1-1.6,0.2v-0.7
			c0.6-0.2,1.1-0.2,1.6-0.2c1.5,0,2.3,0.5,2.3,1.6v3.5h-0.5l-0.3-0.5c-0.5,0.3-1.1,0.5-1.7,0.5C18.1,369.1,17.4,368.6,17.4,367.6z
			 M19.5,366.7c-0.8,0-1.2,0.3-1.2,0.8s0.3,0.8,0.9,0.8s1.2-0.2,1.6-0.5v-1.1C20.4,366.7,20,366.7,19.5,366.7z"/>
		<path d="M23.2,368.9v-0.8c0.6,0.2,1.2,0.3,1.8,0.3c0.8,0,1.2-0.2,1.2-0.7s-0.3-0.7-0.9-0.7h-0.7c-1.1,0-1.7-0.5-1.7-1.5
			s0.7-1.5,2.1-1.5c0.6,0,1.2,0.1,1.8,0.2v0.8c-0.6-0.2-1.2-0.3-1.8-0.3c-0.9,0-1.3,0.2-1.3,0.7s0.3,0.7,0.8,0.7h0.7
			c1.2,0,1.8,0.5,1.8,1.5s-0.7,1.5-2.1,1.5C24.4,369.1,23.8,369,23.2,368.9z"/>
	</g>
	<g class="st2">
		<path d="M-143.5,318.2v-0.8c0.7,0.3,1.5,0.4,2.4,0.4c1.2,0,1.8-0.4,1.8-1.3c0-0.7-0.4-1.1-1.3-1.1h-0.9c-1.5,0-2.2-0.6-2.2-1.9
			s0.9-2,2.8-2c0.8,0,1.6,0.1,2.3,0.3v0.8c-0.7-0.3-1.5-0.4-2.3-0.4c-1.3,0-1.9,0.4-1.9,1.3c0,0.7,0.4,1.1,1.3,1.1h0.9
			c1.5,0,2.2,0.6,2.2,1.9c0,1.4-0.9,2.1-2.7,2.1C-142,318.5-142.8,318.4-143.5,318.2z"/>
		<path d="M-137.8,313.3h1l1.5,4l1.5-4h1l-2.1,5.3c-0.4,0.9-0.9,1.5-1.7,1.7l-0.3-0.6c0.6-0.3,1-0.7,1.2-1.2L-137.8,313.3z"/>
		<path d="M-132.1,318.4v-5.1h0.6l0.2,0.7c0.4-0.4,1-0.7,1.6-0.7v0.8c-0.6,0-1.1,0.2-1.5,0.6v3.7H-132.1z"/>
		<path d="M-127.8,311.4v0.9h-0.9v-0.9H-127.8z M-127.8,313.3v5.1h-0.9v-5.1H-127.8z"/>
		<path d="M-126.5,316.9c0-1.1,0.7-1.6,2.1-1.6c0.4,0,0.9,0,1.3,0.1v-0.5c0-0.6-0.5-0.9-1.4-0.9c-0.5,0-1.1,0.1-1.6,0.2v-0.7
			c0.6-0.2,1.1-0.2,1.6-0.2c1.5,0,2.3,0.5,2.3,1.6v3.5h-0.5l-0.3-0.5c-0.5,0.3-1.1,0.5-1.7,0.5
			C-125.8,318.4-126.5,317.9-126.5,316.9z M-124.4,316c-0.8,0-1.2,0.3-1.2,0.8s0.3,0.8,0.9,0.8s1.2-0.2,1.6-0.5V316
			C-123.5,316.1-123.9,316-124.4,316z"/>
		<path d="M-120.7,312.5h0.6l0.2,0.8h1.4v0.7h-1.2v2.9c0,0.5,0.2,0.7,0.6,0.7h0.6v0.7h-0.9c-0.9,0-1.3-0.5-1.3-1.4
			C-120.7,316.9-120.7,312.5-120.7,312.5z"/>
		<path d="M-115.3,313.3c1.5,0,2.2,0.7,2.2,2.2c0,0.2,0,0.4,0,0.7h-3.6c0,1,0.6,1.6,1.8,1.6c0.6,0,1.1-0.1,1.6-0.2v0.7
			c-0.5,0.1-1,0.2-1.7,0.2c-1.8,0-2.6-0.9-2.6-2.6C-117.6,314.1-116.8,313.3-115.3,313.3z M-116.7,315.4h2.8c0-0.9-0.5-1.3-1.3-1.3
			C-116.2,314-116.7,314.5-116.7,315.4z"/>
		<path d="M-110.9,311.4v7h-0.9v-7H-110.9z"/>
		<path d="M-107,318.2v-0.8c0.7,0.3,1.5,0.4,2.4,0.4c1.2,0,1.8-0.4,1.8-1.3c0-0.7-0.4-1.1-1.3-1.1h-0.9c-1.5,0-2.2-0.6-2.2-1.9
			s0.9-2,2.8-2c0.8,0,1.6,0.1,2.3,0.3v0.8c-0.7-0.3-1.5-0.4-2.3-0.4c-1.3,0-1.9,0.4-1.9,1.3c0,0.7,0.4,1.1,1.3,1.1h0.9
			c1.5,0,2.2,0.6,2.2,1.9c0,1.4-0.9,2.1-2.7,2.1C-105.4,318.5-106.2,318.4-107,318.2z"/>
		<path d="M-98.5,313.3c1.5,0,2.2,0.7,2.2,2.2c0,0.2,0,0.4,0,0.7h-3.6c0,1,0.6,1.6,1.8,1.6c0.6,0,1.1-0.1,1.6-0.2v0.7
			c-0.5,0.1-1,0.2-1.7,0.2c-1.8,0-2.6-0.9-2.6-2.6C-100.9,314.1-100.1,313.3-98.5,313.3z M-100,315.4h2.8c0-0.9-0.5-1.3-1.3-1.3
			C-99.5,314-99.9,314.5-100,315.4z"/>
		<path d="M-95.1,318.4v-5.1h0.6l0.2,0.7c0.4-0.4,1-0.7,1.6-0.7v0.8c-0.6,0-1.1,0.2-1.5,0.6v3.7H-95.1z"/>
		<path d="M-92.6,313.3h1l1.5,4l1.5-4h1l-2.1,5.1h-0.8L-92.6,313.3z"/>
		<path d="M-86,311.4v0.9h-0.9v-0.9H-86z M-86,313.3v5.1h-0.9v-5.1H-86z"/>
		<path d="M-80.5,318.3c-0.4,0.1-0.9,0.1-1.4,0.1c-1.8,0-2.7-0.9-2.7-2.7c0-1.6,0.9-2.5,2.7-2.5c0.5,0,0.9,0,1.4,0.1v0.7
			c-0.4-0.1-0.9-0.1-1.4-0.1c-1.2,0-1.8,0.6-1.8,1.7c0,1.3,0.6,1.9,1.8,1.9c0.5,0,1,0,1.4-0.1V318.3z"/>
		<path d="M-77.3,313.3c1.5,0,2.2,0.7,2.2,2.2c0,0.2,0,0.4,0,0.7h-3.6c0,1,0.6,1.6,1.8,1.6c0.6,0,1.1-0.1,1.6-0.2v0.7
			c-0.5,0.1-1,0.2-1.7,0.2c-1.8,0-2.6-0.9-2.6-2.6C-79.6,314.1-78.8,313.3-77.3,313.3z M-78.7,315.4h2.8c0-0.9-0.5-1.3-1.3-1.3
			C-78.2,314-78.7,314.5-78.7,315.4z"/>
	</g>
	<g class="st2">
		<path d="M-118.4,330.2c-0.6,0.2-1.3,0.3-2,0.3c-2.4,0-3.7-1.2-3.7-3.6c0-2.3,1.2-3.4,3.7-3.4c0.7,0,1.4,0.1,2,0.3v0.8
			c-0.6-0.2-1.2-0.3-1.9-0.3c-1.9,0-2.9,0.9-2.9,2.7c0,1.9,1,2.9,2.9,2.9c0.6,0,1.3-0.1,1.9-0.3V330.2z"/>
		<path d="M-114.9,325.3c1.5,0,2.2,0.7,2.2,2.2c0,0.2,0,0.4,0,0.7h-3.6c0,1,0.6,1.6,1.8,1.6c0.6,0,1.1-0.1,1.6-0.2v0.7
			c-0.5,0.1-1,0.2-1.7,0.2c-1.8,0-2.6-0.9-2.6-2.6C-117.3,326.1-116.5,325.3-114.9,325.3z M-116.4,327.4h2.8c0-0.9-0.5-1.3-1.3-1.3
			C-115.8,326-116.3,326.5-116.4,327.4z"/>
		<path d="M-111.5,330.4v-5.1h0.6l0.2,0.7c0.5-0.4,1.1-0.7,1.7-0.7c1.3,0,1.9,0.6,1.9,1.9v3.2h-0.9v-3.2c0-0.8-0.4-1.1-1.1-1.1
			c-0.5,0-1,0.2-1.5,0.6v3.7H-111.5z"/>
		<path d="M-105.6,324.5h0.6l0.2,0.8h1.4v0.7h-1.2v2.9c0,0.5,0.2,0.7,0.6,0.7h0.6v0.7h-0.9c-0.9,0-1.3-0.5-1.3-1.4
			C-105.6,328.9-105.6,324.5-105.6,324.5z"/>
		<path d="M-100.2,325.3c1.5,0,2.2,0.7,2.2,2.2c0,0.2,0,0.4,0,0.7h-3.6c0,1,0.6,1.6,1.8,1.6c0.6,0,1.1-0.1,1.6-0.2v0.7
			c-0.5,0.1-1,0.2-1.7,0.2c-1.8,0-2.6-0.9-2.6-2.6C-102.6,326.1-101.8,325.3-100.2,325.3z M-101.7,327.4h2.8c0-0.9-0.5-1.3-1.3-1.3
			C-101.1,326-101.6,326.5-101.7,327.4z"/>
		<path d="M-96.8,330.4v-5.1h0.6l0.2,0.7c0.4-0.4,1-0.7,1.6-0.7v0.8c-0.6,0-1.1,0.2-1.5,0.6v3.7H-96.8z"/>
	</g>
	<g class="st2">
		<path d="M221.2,369.4v0.8h-2.4v6.9h-1v-6.9h-2.4v-0.8H221.2z"/>
		<path d="M223.4,369.4v0.9h-1v-0.9H223.4z M223.4,371.5v5.6h-1v-5.6H223.4z"/>
		<path d="M225.1,376.8V376c0.7,0.2,1.3,0.3,2,0.3c0.9,0,1.3-0.3,1.3-0.8s-0.3-0.8-0.9-0.8h-0.8c-1.2,0-1.8-0.6-1.8-1.7
			s0.8-1.6,2.3-1.6c0.7,0,1.3,0.1,2,0.3v0.9c-0.7-0.2-1.3-0.3-2-0.3c-0.9,0-1.4,0.3-1.4,0.8s0.3,0.8,0.9,0.8h0.8
			c1.3,0,1.9,0.6,1.9,1.7s-0.8,1.6-2.3,1.6C226.4,377.1,225.7,377,225.1,376.8z"/>
		<path d="M230.8,377.1v-7.7h1v2.7c0.5-0.4,1.1-0.6,1.8-0.6c1.4,0,2.1,0.7,2.1,2.1v3.5h-1v-3.6c0-0.8-0.4-1.3-1.3-1.3
			c-0.6,0-1.1,0.2-1.6,0.7v4.1L230.8,377.1L230.8,377.1z"/>
		<path d="M237.3,377.1v-5.6h0.7l0.2,0.7c0.5-0.5,1.1-0.7,1.8-0.7v0.8c-0.7,0-1.2,0.2-1.6,0.7v4.1H237.3z"/>
		<path d="M243.2,371.5c1.6,0,2.4,0.8,2.4,2.4c0,0.2,0,0.5,0,0.7h-4c0,1.2,0.7,1.7,2,1.7c0.6,0,1.2-0.1,1.7-0.2v0.8
			c-0.5,0.1-1.1,0.2-1.8,0.2c-1.9,0-2.9-1-2.9-2.9C240.6,372.4,241.5,371.5,243.2,371.5z M241.6,373.7h3.1c0-1-0.5-1.5-1.5-1.5
			C242.2,372.3,241.7,372.7,241.6,373.7z"/>
		<path d="M249.3,371.5c1.6,0,2.4,0.8,2.4,2.4c0,0.2,0,0.5,0,0.7h-4c0,1.2,0.7,1.7,2,1.7c0.6,0,1.2-0.1,1.7-0.2v0.8
			c-0.5,0.1-1.1,0.2-1.8,0.2c-1.9,0-2.9-1-2.9-2.9C246.7,372.4,247.5,371.5,249.3,371.5z M247.7,373.7h3.1c0-1-0.5-1.5-1.5-1.5
			C248.3,372.3,247.7,372.7,247.7,373.7z"/>
		<path d="M253,377.1v-5.6h0.7l0.2,0.7c0.6-0.5,1.2-0.7,1.9-0.7c1.4,0,2.1,0.7,2.1,2.1v3.5h-1v-3.6c0-0.8-0.4-1.3-1.3-1.3
			c-0.6,0-1.1,0.2-1.6,0.7v4.1L253,377.1L253,377.1z"/>
	</g>
	<g class="st2">
		<path d="M220,390v-0.9c0.8,0.3,1.7,0.4,2.6,0.4c1.3,0,2-0.5,2-1.5c0-0.8-0.5-1.2-1.5-1.2h-1c-1.6,0-2.4-0.7-2.4-2.1
			c0-1.5,1-2.2,3.1-2.2c0.9,0,1.7,0.1,2.5,0.3v0.9c-0.8-0.3-1.6-0.4-2.5-0.4c-1.4,0-2.1,0.5-2.1,1.4c0,0.8,0.5,1.2,1.4,1.2h1
			c1.6,0,2.5,0.7,2.5,2.1c0,1.5-1,2.3-3,2.3C221.6,390.4,220.8,390.2,220,390z"/>
		<path d="M231.6,392.3h-1V390c-0.4,0.2-0.9,0.3-1.4,0.3c-1.8,0-2.7-1-2.7-2.9s0.9-2.8,2.8-2.8c0.8,0,1.5,0.1,2.2,0.2L231.6,392.3
			L231.6,392.3z M230.7,385.6c-0.3-0.1-0.8-0.1-1.3-0.1c-1.2,0-1.8,0.7-1.8,1.9c0,1.3,0.6,2,1.7,2c0.5,0,1-0.1,1.4-0.3L230.7,385.6
			L230.7,385.6z"/>
		<path d="M238.1,384.7v5.6h-0.7l-0.2-0.7c-0.7,0.5-1.4,0.7-2.1,0.7c-1.3,0-1.9-0.7-1.9-2.1v-3.5h1v3.6c0,0.8,0.4,1.3,1.2,1.3
			c0.6,0,1.1-0.2,1.6-0.7v-4.1L238.1,384.7L238.1,384.7z"/>
		<path d="M239.5,388.6c0-1.2,0.8-1.7,2.3-1.7c0.5,0,1,0,1.5,0.1v-0.5c0-0.6-0.5-1-1.5-1c-0.6,0-1.2,0.1-1.8,0.3V385
			c0.6-0.2,1.2-0.3,1.8-0.3c1.7,0,2.5,0.6,2.5,1.8v3.9h-0.6l-0.3-0.6c-0.6,0.4-1.2,0.6-1.8,0.6C240.1,390.3,239.5,389.7,239.5,388.6
			z M241.8,387.7c-0.9,0-1.3,0.3-1.3,0.9s0.3,0.9,1,0.9s1.3-0.2,1.7-0.5v-1.2C242.7,387.7,242.2,387.7,241.8,387.7z"/>
		<path d="M245.8,390.3v-5.6h0.7l0.2,0.7c0.5-0.5,1.1-0.7,1.8-0.7v0.8c-0.7,0-1.2,0.2-1.6,0.7v4.1H245.8z"/>
		<path d="M251.8,384.7c1.6,0,2.4,0.8,2.4,2.4c0,0.2,0,0.5,0,0.7h-4c0,1.2,0.7,1.7,2,1.7c0.6,0,1.2-0.1,1.7-0.2v0.8
			c-0.5,0.1-1.1,0.2-1.8,0.2c-1.9,0-2.9-1-2.9-2.9C249.2,385.6,250,384.7,251.8,384.7z M250.2,386.9h3.1c0-1-0.5-1.5-1.5-1.5
			C250.8,385.5,250.2,385.9,250.2,386.9z"/>
	</g>
</g>
</svg>
